# xmcd
#
# Track frame offsets: 
#        150
#        17407
#        33522
#        55275
#        77255
#        95117
#        110867
#        132920
#        150457
#        168057
#        190602
#        207247
#
# Disc length: 3046 seconds
#
# Revision: 2
# Processed by: cddbd v1.5.1PL0 Copyright (c) Steve Scherf et al.
# Submitted via: ExactAudioCopy v0.95a5
#
DISCID=900be40c
DTITLE=Dick's Hat Band - Got the Whole Town Talkin'
DYEAR=1996
DGENRE=Modern Electric Blues
TTITLE0=I'd Rather Drink Muddy Water
TTITLE1=I'll Fall Down
TTITLE2=Too Much Monkey Business
TTITLE3=Don't Let the Green Grass Fool You
TTITLE4=You've Got the Whole Town Talkin'
TTITLE5=Good Time to Hit the Road
TTITLE6=You Put the Hurt on Me
TTITLE7=Shanghaied, Crucified, and Criticized
TTITLE8=Can't See the Hook
TTITLE9=Blind Suspicion
TTITLE10=Fish Net Hose
TTITLE11=Baby Ruth
EXTD=
EXTT0=
EXTT1=
EXTT2=
EXTT3=
EXTT4=
EXTT5=
EXTT6=
EXTT7=
EXTT8=
EXTT9=
EXTT10=
EXTT11=
PLAYORDER=
